<?xml version="1.0" encoding="UTF-8"?>
<svg width="18px" height="18px" viewBox="0 0 18 18" version="1.1" xmlns="http://www.w3.org/2000/svg" xmlns:xlink="http://www.w3.org/1999/xlink">
    <!-- Generator: Sketch 48.2 (47327) - http://www.bohemiancoding.com/sketch -->
    <title>Group</title>
    <desc>Created with Sketch.</desc>
    <defs></defs>
    <g id="Page-1" stroke="none" stroke-width="1" fill="none" fill-rule="evenodd">
        <g id="Group" transform="translate(-3.000000, -3.000000)">
            <g id="list_alt-24px" fill="#000000" fill-rule="nonzero">
                <path d="M19,5 L19,19 L5,19 L5,5 L19,5 Z M20.1,3 L3.9,3 C3.4,3 3,3.4 3,3.9 L3,20.1 C3,20.5 3.4,21 3.9,21 L20.1,21 C20.5,21 21,20.5 21,20.1 L21,3.9 C21,3.4 20.5,3 20.1,3 Z" id="Shape"></path>
            </g>
            <g id="schedule-24px" transform="translate(5.000000, 5.000000)">
                <polygon id="Shape" fill="#FFFFFF" points="0 0 14 0 14 14 0 14"></polygon>
                <polygon id="Shape" fill="#000000" fill-rule="nonzero" points="7.5 4 6 4 6 7.9154786 8.52983891 9.53673326 9.40238948 8.04464122 7.5 6.92291085"></polygon>
                <path d="M6.994,1 C3.682,1 1,3.688 1,7 C1,10.312 3.682,13 6.994,13 C10.312,13 13,10.312 13,7 C13,3.688 10.312,1 6.994,1 Z M7,11 C4.79,11 3,9.21 3,7 C3,4.79 4.79,3 7,3 C9.21,3 11,4.79 11,7 C11,9.21 9.21,11 7,11 Z" id="Shape" fill="#000000" fill-rule="nonzero"></path>
            </g>
        </g>
    </g>
</svg>